PathFileType	4	(X/Y/Z)	/Users/visionmauri/Downloads/pro-gait-dataset/4_0_1_f_1_Sports2D/4_0_1_f_1_Sports2D_px_person00.trc
DataRate	CameraRate	NumFrames	NumMarkers	Units	OrigDataRate	OrigDataStartFrame	OrigNumFrames
30.0	30.0	12	22	m	30.0	0	654
Frame#	Time	Hip			RHip			RKnee			RAnkle			RBigToe			RSmallToe			RHeel			LHip			LKnee			LAnkle			LBigToe			LSmallToe			LHeel			Neck			Head			Nose			RShoulder			RElbow			RWrist			LShoulder			LElbow			LWrist			
		X1	Y1	Z1	X2	Y2	Z2	X3	Y3	Z3	X4	Y4	Z4	X5	Y5	Z5	X6	Y6	Z6	X7	Y7	Z7	X8	Y8	Z8	X9	Y9	Z9	X10	Y10	Z10	X11	Y11	Z11	X12	Y12	Z12	X13	Y13	Z13	X14	Y14	Z14	X15	Y15	Z15	X16	Y16	Z16	X17	Y17	Z17	X18	Y18	Z18	X19	Y19	Z19	X20	Y20	Z20	X21	Y21	Z21	X22	Y22	Z22
0	0.0	505.53621169276227	930.8684834201761	0.0	562.6047507320886	915.8505077144919	0.0	553.5948307020038	1141.1240656042303	0.0	556.5982087650387	1357.385502823181	0.0	508.53984715796196	1396.432205783109	0.0	535.5734342767346	1399.4361136340294	0.0	553.5950872698369	1390.4259713041868	0.0	454.4744941910039	924.8614871074417	0.0	442.46030946806763	1189.1816143152546	0.0	469.49276789059695	1417.4584386593838	0.0	400.40971016492847	1411.4505860925883	0.0	400.4089235343279	1432.4760350715997	0.0	490.5182545166931	1450.4982572545898	0.0	454.4749805486301	600.4686274709812	0.0	421.43483565403767	474.3154390054474	0.0	403.41325069943844	555.4138476588283	0.0	559.6020095953091	645.5227369313782	0.0	628.6851988378136	798.7086153441898	0.0	616.6710180727499	933.8731722215886	0.0	373.37667579052305	648.5262457626608	0.0	340.3363234140436	828.7442620621779	0.0	319.3112270894178	975.923116949474	0.0
1	0.0333843797856049	505.01628651571474	929.515241208589	0.0	562.8694910033826	914.1777619416046	0.0	553.3223062234467	1141.2241785066335	0.0	554.9861922821107	1354.9779758349002	0.0	508.55362368748405	1396.251525132535	0.0	534.8832828808311	1399.6525281796692	0.0	552.1908662446256	1389.9710021250423	0.0	454.0731525925036	923.4418960130741	0.0	443.76973287274984	1188.7744139490053	0.0	470.0717455581365	1416.5653096922595	0.0	400.0471369007172	1411.4202655608124	0.0	400.257421195313	1432.6807016305154	0.0	490.09846493519177	1450.3618415486624	0.0	453.0351653029122	599.8934607914068	0.0	419.15667665631304	474.1050725684712	0.0	400.19465444803075	555.789169806877	0.0	558.8581538963837	644.8933568963291	0.0	628.778688547833	796.4183816621531	0.0	615.2543385629197	930.9848407541715	0.0	370.1654271479387	648.9095707946092	0.0	338.3138343931758	830.4820874214388	0.0	317.2443735662909	977.2590938767695	0.0
2	0.0667687595712098	503.3583375034007	927.9903488224353	0.0	562.322405552571	912.0343077963724	0.0	550.8956161918071	1139.2353390649312	0.0	551.1915798690254	1349.1342148887718	0.0	507.9496750067796	1391.9250114089941	0.0	533.4532954779557	1395.2537849624073	0.0	549.2557834420486	1385.7581286811592	0.0	452.7721071380453	921.9207100859963	0.0	445.2323350832618	1187.0924681718066	0.0	470.63057143045546	1415.8157641462535	0.0	399.74164973164795	1411.5486117632615	0.0	400.59794818763856	1432.7749196161815	0.0	490.15392741408004	1451.2591031477377	0.0	450.89616695708156	599.3836347950449	0.0	415.2118946109459	473.8334614770366	0.0	395.1900840692864	555.8781630291849	0.0	557.2180203175623	644.4942115466242	0.0	628.8967599334835	794.02353459841	0.0	614.2722428214386	927.0327473541042	0.0	365.95340449611695	649.260852427451	0.0	334.26528229761055	831.8576316379566	0.0	313.94931620536653	978.4627954926636	0.0
3	0.10015313935681469	500.67417872188514	926.5448430256532	0.0	560.8490988917869	910.4882153076344	0.0	545.9009982433225	1135.1242987992557	0.0	545.5715991765247	1340.542569837429	0.0	506.5175865273601	1381.7628306326117	0.0	531.4321630668951	1384.1356465111805	0.0	544.6121360873187	1377.460392025508	0.0	450.5368661689669	920.7801385956087	0.0	446.6621616523794	1184.852493279059	0.0	470.8283291988753	1415.8788122516062	0.0	399.73056164645755	1412.1370872165785	0.0	401.2609499976855	1432.6717005002495	0.0	490.6784092455535	1453.5192585368304	0.0	448.2479972759379	599.1745718265219	0.0	410.47377860013114	473.65715467599114	0.0	389.54902770380113	555.8536252403231	0.0	554.9238807359972	644.2370222474616	0.0	628.9746627069898	792.2443991251384	0.0	614.8281445681026	923.7060793914044	0.0	361.54389093124547	649.3765316064422	0.0	328.49601712027834	832.4657359894541	0.0	310.1252981176907	979.076315767674	0.0
4	0.1335375191424196	498.16785432041013	925.2028512493652	0.0	559.2791515327139	910.3065562066778	0.0	540.8080295278677	1131.239988365997	0.0	540.4284105599744	1332.756278858074	0.0	503.4215760471901	1367.179313763765	0.0	529.4287625085617	1368.8841677068947	0.0	539.4051443382722	1367.9403523670073	0.0	447.8810037739808	920.0804761515288	0.0	447.7734338733722	1183.9878453294873	0.0	470.5384313944554	1417.0098077091113	0.0	400.251654843898	1412.9269436973875	0.0	401.73304594960666	1432.504521081599	0.0	491.1922106040749	1455.7427355287132	0.0	445.13411355424813	599.0092859813759	0.0	407.3602878198934	473.70595170792205	0.0	386.1164439038302	555.9049213324844	0.0	552.8280900008834	643.0445442352194	0.0	628.9535467158179	790.5316337488003	0.0	616.4682657400034	922.4418498776034	0.0	357.2202818532032	649.0788342529886	0.0	322.5284248207895	832.6382256152258	0.0	307.1020486201516	978.6552828816805	0.0
5	0.1669218989280245	496.654676295788	924.330372508685	0.0	558.377077007324	910.6303472804047	0.0	538.3851414225909	1129.1026136253706	0.0	537.4665654291802	1326.8912319867654	0.0	499.75834394167333	1352.4451780569254	0.0	528.3107160393009	1355.6700373889576	0.0	535.4333128481652	1358.8482455810126	0.0	445.19254754714905	919.584838753952	0.0	448.7356905844208	1185.0306767781121	0.0	470.28344624752543	1418.4644054895778	0.0	401.86476037131325	1413.543521061493	0.0	402.0104252833189	1432.7598028654488	0.0	491.2962965817779	1456.4033978170214	0.0	441.7229581415926	598.2940027600284	0.0	406.9456705807883	474.0208370244005	0.0	386.5332345714755	555.7135164617887	0.0	551.3239162507157	640.4032429587722	0.0	628.8742345768037	788.3722139994156	0.0	617.5390452919082	922.4131355638655	0.0	352.47140762362324	648.3979305671958	0.0	317.4352559063494	832.8126068141868	0.0	304.9991025996864	977.2297603805202	0.0
6	0.20030627871362938	496.0013733723032	924.8464689326883	0.0	557.9154574166936	910.5531931022439	0.0	538.1910607972569	1127.3872398089684	0.0	536.4192949215295	1320.401371835511	0.0	500.19009403076126	1342.6762697371237	0.0	529.4319342229448	1349.8681797086451	0.0	533.8130516827617	1349.6595556667123	0.0	443.0964133059371	919.7130249473485	0.0	450.28352174506944	1186.669357704168	0.0	470.6956208167086	1419.5670347618345	0.0	405.1472512075549	1414.3175675872233	0.0	402.3301212974642	1433.8226047897272	0.0	490.6414264000125	1456.3542993247054	0.0	439.3055861059832	597.1816721440167	0.0	407.769649328618	474.8325901360608	0.0	389.2318892695583	555.1281210095386	0.0	550.3602415478805	637.9758630096335	0.0	628.7929504315937	787.2029360084059	0.0	618.003357312919	922.8678869908331	0.0	348.28605198519455	647.9175661681312	0.0	313.5382368182448	832.8899956837132	0.0	302.84980448278856	975.797775634306	0.0
7	0.2336906584992343	495.7983629808221	926.4083614965483	0.0	557.408639277835	910.0939729244802	0.0	538.4640852439707	1124.418731110131	0.0	536.4165417069044	1311.9682104853555	0.0	506.2541027137668	1338.7833870845072	0.0	533.0775493899292	1350.6368490667674	0.0	534.182112428467	1340.677718563204	0.0	442.2017746785181	920.5422635087886	0.0	452.7966724244886	1187.7595484951332	0.0	471.52605030931585	1420.4065658337195	0.0	408.8631173449015	1415.2344659274775	0.0	402.8011015984254	1435.1905948217816	0.0	488.9588174256429	1456.948877850056	0.0	438.76337808504195	596.4774038467957	0.0	407.8663635030473	476.19834078285504	0.0	391.30986030022797	554.4457965650039	0.0	549.8603154050911	637.2708494278824	0.0	628.6740683144118	787.2842150208456	0.0	618.7268904027065	923.5459762883762	0.0	346.1151523698644	648.5946830833697	0.0	310.5491308907879	833.0246386694392	0.0	300.21375817129774	975.516995341788	0.0
8	0.2670750382848392	495.3495992735385	927.5088620277039	0.0	557.0328606477735	909.6029061112752	0.0	539.7937633543564	1120.0710538171356	0.0	537.7000257318653	1303.3001241902607	0.0	513.8324282757638	1337.0794269995897	0.0	537.1052410845365	1350.8612667187592	0.0	535.5787246478432	1332.0915299611115	0.0	441.732794381603	921.2064165590168	0.0	455.6644247950262	1188.3176273784445	0.0	471.9461237098299	1421.0579345429362	0.0	410.40680352369895	1415.615325397447	0.0	403.7955888101543	1435.9784722346324	0.0	487.04288491728926	1457.3621175942715	0.0	439.14389637172894	596.533479917994	0.0	407.003167851733	477.60846500929904	0.0	392.0422499340801	553.8897220976802	0.0	549.6701734637769	637.607587293849	0.0	628.5576836220296	787.0008947514641	0.0	619.5048196794752	923.3005735624182	0.0	345.6974178360559	650.4640954108094	0.0	308.35685964353206	833.7059564749542	0.0	298.1224261168426	976.2274743307352	0.0
9	0.3004594180704441	493.92840186817904	927.8110232179457	0.0	556.7170982966704	909.7632997688403	0.0	543.2187313039841	1114.8597368837568	0.0	540.7765467319058	1295.6078393847595	0.0	520.5160633853602	1335.084008760429	0.0	540.2938079682476	1345.9606152895865	0.0	537.7165969374496	1322.772471955046	0.0	440.54218636730354	921.7261614843416	0.0	457.7065642957796	1188.5379561851619	0.0	471.7878947776946	1421.1979805888136	0.0	409.55318651938785	1415.4581559468738	0.0	405.332491878739	1436.1945788765788	0.0	486.2965353234274	1456.5742787821184	0.0	439.55103396635036	597.2044997522659	0.0	406.40647955099615	478.71962817327073	0.0	392.2737027505998	553.9571014692162	0.0	549.6799731385801	638.0903807051627	0.0	628.5836990728429	786.1049589305019	0.0	620.0150418268986	921.5939680176419	0.0	346.25913128384485	652.4452928322185	0.0	307.4035606742459	834.6338224725371	0.0	297.99961127725555	976.7704822242551	0.0
10	0.333843797856049	491.86375240951725	928.2035763442332	0.0	555.3105279269132	911.3094270369564	0.0	547.8581784683311	1109.9553298382696	0.0	545.2670718531316	1288.4373364112764	0.0	527.8101848386291	1333.1317262345437	0.0	545.3422779024127	1338.6454092662743	0.0	541.4836368357236	1313.419839183885	0.0	439.0953695416372	923.3233248913818	0.0	458.3753982559866	1188.422715723835	0.0	471.48537572787706	1420.7504906351273	0.0	409.1547840068839	1415.313531087553	0.0	406.33415597265184	1436.2758693820956	0.0	486.82412733369665	1455.5096672775883	0.0	440.8757131988388	598.4658841217256	0.0	407.3069742045281	479.86070126118295	0.0	392.90344589644354	555.3975876285804	0.0	550.0606722077991	638.8199582828353	0.0	628.5869981604401	785.6316657876523	0.0	621.0064754912951	920.2132125047369	0.0	347.9962968340025	653.4816478850838	0.0	307.6928285440786	834.3420033693335	0.0	300.21496551319285	976.3813202181403	0.0
11	0.3672281776416539	490.2426691435395	929.007988095788	0.0	552.4414254265375	913.5236422108193	0.0	553.1933163668425	1106.710984732895	0.0	550.4488694398306	1281.195311577688	0.0	536.3939364344972	1331.6665624890388	0.0	554.0573262929743	1332.7066283924696	0.0	547.3003836796564	1305.8673936080957	0.0	438.3276011844822	925.9518951763547	0.0	458.4140830447959	1188.4096953379144	0.0	471.30401988516894	1419.8501263628873	0.0	410.6544641918953	1415.112172450104	0.0	405.96339588135305	1435.8638648644335	0.0	487.63817279188805	1454.9347582166788	0.0	443.6727761785756	600.081569834252	0.0	409.85798142236115	481.32910085076537	0.0	395.2282621766667	557.7677910112113	0.0	550.8083978152612	639.7029678631837	0.0	628.4790668561172	785.8426084934041	0.0	623.136813290576	921.2014677987096	0.0	350.81178151342704	653.2092650241542	0.0	308.69077656035336	832.0171956363768	0.0	303.4551585390239	974.815621884237	0.0
